<svg>
<circle cx="363.000000" cy="31.000000" r="15.000000" fill="black" stroke="midnightblue" stroke-width="1" />
<rect x="66.000000" y="220.000000" width="30.000000" height="30.000000" fill="black" stroke="midnightblue" stroke-width="1" />
<circle cx="363.000000" cy="31.000000" r="15.000000" fill="black" stroke="midnightblue" stroke-width="1" />
<rect x="66.000000" y="220.000000" width="30.000000" height="30.000000" fill="black" stroke="midnightblue" stroke-width="1" />
<rect x="25.000000" y="25.000000" width="120.000000" height="80.000000" fill="orange" stroke="red" stroke-width="1" />
<text x="28.000000" y="37.000000" font-size="12" fill="red"> quadra0 </text>
<rect x="160.000000" y="25.000000" width="120.000000" height="80.000000" fill="orange" stroke="red" stroke-width="1" />
<text x="163.000000" y="37.000000" font-size="12" fill="red"> quadra1 </text>
<rect x="295.000000" y="25.000000" width="120.000000" height="80.000000" fill="orange" stroke="red" stroke-width="1" />
<text x="298.000000" y="37.000000" font-size="12" fill="red"> quadra2 </text>
<rect x="430.000000" y="25.000000" width="120.000000" height="80.000000" fill="orange" stroke="red" stroke-width="1" />
<text x="433.000000" y="37.000000" font-size="12" fill="red"> quadra3 </text>
<rect x="565.000000" y="25.000000" width="120.000000" height="80.000000" fill="orange" stroke="red" stroke-width="1" />
<text x="568.000000" y="37.000000" font-size="12" fill="red"> quadra4 </text>
<rect x="25.000000" y="120.000000" width="120.000000" height="80.000000" fill="orange" stroke="red" stroke-width="1" />
<text x="28.000000" y="132.000000" font-size="12" fill="red"> quadra5 </text>
<rect x="160.000000" y="120.000000" width="120.000000" height="80.000000" fill="orange" stroke="red" stroke-width="1" />
<text x="163.000000" y="132.000000" font-size="12" fill="red"> quadra6 </text>
<rect x="295.000000" y="120.000000" width="120.000000" height="80.000000" fill="orange" stroke="red" stroke-width="1" />
<text x="298.000000" y="132.000000" font-size="12" fill="red"> quadra7 </text>
<rect x="430.000000" y="120.000000" width="120.000000" height="80.000000" fill="orange" stroke="red" stroke-width="1" />
<text x="433.000000" y="132.000000" font-size="12" fill="red"> quadra8 </text>
<rect x="565.000000" y="120.000000" width="120.000000" height="80.000000" fill="orange" stroke="red" stroke-width="1" />
<text x="568.000000" y="132.000000" font-size="12" fill="red"> quadra9 </text>
<rect x="25.000000" y="215.000000" width="120.000000" height="80.000000" fill="orange" stroke="red" stroke-width="1" />
<text x="28.000000" y="227.000000" font-size="12" fill="red"> quadra10 </text>
<rect x="160.000000" y="215.000000" width="120.000000" height="80.000000" fill="orange" stroke="red" stroke-width="1" />
<text x="163.000000" y="227.000000" font-size="12" fill="red"> quadra11 </text>
<rect x="295.000000" y="215.000000" width="120.000000" height="80.000000" fill="orange" stroke="red" stroke-width="1" />
<text x="298.000000" y="227.000000" font-size="12" fill="red"> quadra12 </text>
<rect x="430.000000" y="215.000000" width="120.000000" height="80.000000" fill="orange" stroke="red" stroke-width="1" />
<text x="433.000000" y="227.000000" font-size="12" fill="red"> quadra13 </text>
<rect x="565.000000" y="215.000000" width="120.000000" height="80.000000" fill="orange" stroke="red" stroke-width="1" />
<text x="568.000000" y="227.000000" font-size="12" fill="red"> quadra14 </text>
<rect x="25.000000" y="310.000000" width="120.000000" height="80.000000" fill="orange" stroke="red" stroke-width="1" />
<text x="28.000000" y="322.000000" font-size="12" fill="red"> quadra15 </text>
<rect x="160.000000" y="310.000000" width="120.000000" height="80.000000" fill="orange" stroke="red" stroke-width="1" />
<text x="163.000000" y="322.000000" font-size="12" fill="red"> quadra16 </text>
<rect x="295.000000" y="310.000000" width="120.000000" height="80.000000" fill="orange" stroke="red" stroke-width="1" />
<text x="298.000000" y="322.000000" font-size="12" fill="red"> quadra17 </text>
<rect x="430.000000" y="310.000000" width="120.000000" height="80.000000" fill="orange" stroke="red" stroke-width="1" />
<text x="433.000000" y="322.000000" font-size="12" fill="red"> quadra18 </text>
<rect x="565.000000" y="310.000000" width="120.000000" height="80.000000" fill="orange" stroke="red" stroke-width="1" />
<text x="568.000000" y="322.000000" font-size="12" fill="red"> quadra19 </text>
<rect x="25.000000" y="405.000000" width="120.000000" height="80.000000" fill="orange" stroke="red" stroke-width="1" />
<text x="28.000000" y="417.000000" font-size="12" fill="red"> quadra20 </text>
<rect x="160.000000" y="405.000000" width="120.000000" height="80.000000" fill="orange" stroke="red" stroke-width="1" />
<text x="163.000000" y="417.000000" font-size="12" fill="red"> quadra21 </text>
<rect x="295.000000" y="405.000000" width="120.000000" height="80.000000" fill="orange" stroke="red" stroke-width="1" />
<text x="298.000000" y="417.000000" font-size="12" fill="red"> quadra22 </text>
<rect x="430.000000" y="405.000000" width="120.000000" height="80.000000" fill="orange" stroke="red" stroke-width="1" />
<text x="433.000000" y="417.000000" font-size="12" fill="red"> quadra23 </text>
<rect x="565.000000" y="405.000000" width="120.000000" height="80.000000" fill="orange" stroke="red" stroke-width="1" />
<text x="568.000000" y="417.000000" font-size="12" fill="red"> quadra24 </text>
<rect x="85.000000" y="25.000000" width="10" height="10" fill="red" stroke="lemonchiffon" stroke-width="1" />
<text x="85.500000" y="34.000000" font-size="12" fill="lemonchiffon"> H </text>
<rect x="85.000000" y="105.000000" width="10" height="10" fill="red" stroke="lemonchiffon" stroke-width="1" />
<text x="85.500000" y="114.000000" font-size="12" fill="lemonchiffon"> H </text>
<rect x="280.000000" y="65.000000" width="10" height="10" fill="red" stroke="lemonchiffon" stroke-width="1" />
<text x="280.500000" y="74.000000" font-size="12" fill="lemonchiffon"> H </text>
<rect x="220.000000" y="105.000000" width="10" height="10" fill="red" stroke="lemonchiffon" stroke-width="1" />
<text x="220.500000" y="114.000000" font-size="12" fill="lemonchiffon"> H </text>
<rect x="160.000000" y="65.000000" width="10" height="10" fill="red" stroke="lemonchiffon" stroke-width="1" />
<text x="160.500000" y="74.000000" font-size="12" fill="lemonchiffon"> H </text>
<rect x="355.000000" y="25.000000" width="10" height="10" fill="red" stroke="lemonchiffon" stroke-width="1" />
<text x="355.500000" y="34.000000" font-size="12" fill="lemonchiffon"> H </text>
<rect x="355.000000" y="105.000000" width="10" height="10" fill="red" stroke="lemonchiffon" stroke-width="1" />
<text x="355.500000" y="114.000000" font-size="12" fill="lemonchiffon"> H </text>
<rect x="490.000000" y="25.000000" width="10" height="10" fill="red" stroke="lemonchiffon" stroke-width="1" />
<text x="490.500000" y="34.000000" font-size="12" fill="lemonchiffon"> H </text>
<rect x="430.000000" y="65.000000" width="10" height="10" fill="red" stroke="lemonchiffon" stroke-width="1" />
<text x="430.500000" y="74.000000" font-size="12" fill="lemonchiffon"> H </text>
<rect x="685.000000" y="65.000000" width="10" height="10" fill="red" stroke="lemonchiffon" stroke-width="1" />
<text x="685.500000" y="74.000000" font-size="12" fill="lemonchiffon"> H </text>
<rect x="85.000000" y="120.000000" width="10" height="10" fill="red" stroke="lemonchiffon" stroke-width="1" />
<text x="85.500000" y="129.000000" font-size="12" fill="lemonchiffon"> H </text>
<rect x="145.000000" y="160.000000" width="10" height="10" fill="red" stroke="lemonchiffon" stroke-width="1" />
<text x="145.500000" y="169.000000" font-size="12" fill="lemonchiffon"> H </text>
<rect x="85.000000" y="200.000000" width="10" height="10" fill="red" stroke="lemonchiffon" stroke-width="1" />
<text x="85.500000" y="209.000000" font-size="12" fill="lemonchiffon"> H </text>
<rect x="220.000000" y="120.000000" width="10" height="10" fill="red" stroke="lemonchiffon" stroke-width="1" />
<text x="220.500000" y="129.000000" font-size="12" fill="lemonchiffon"> H </text>
<rect x="220.000000" y="200.000000" width="10" height="10" fill="red" stroke="lemonchiffon" stroke-width="1" />
<text x="220.500000" y="209.000000" font-size="12" fill="lemonchiffon"> H </text>
<rect x="415.000000" y="160.000000" width="10" height="10" fill="red" stroke="lemonchiffon" stroke-width="1" />
<text x="415.500000" y="169.000000" font-size="12" fill="lemonchiffon"> H </text>
<rect x="355.000000" y="200.000000" width="10" height="10" fill="red" stroke="lemonchiffon" stroke-width="1" />
<text x="355.500000" y="209.000000" font-size="12" fill="lemonchiffon"> H </text>
<rect x="295.000000" y="160.000000" width="10" height="10" fill="red" stroke="lemonchiffon" stroke-width="1" />
<text x="295.500000" y="169.000000" font-size="12" fill="lemonchiffon"> H </text>
<rect x="490.000000" y="120.000000" width="10" height="10" fill="red" stroke="lemonchiffon" stroke-width="1" />
<text x="490.500000" y="129.000000" font-size="12" fill="lemonchiffon"> H </text>
<rect x="550.000000" y="160.000000" width="10" height="10" fill="red" stroke="lemonchiffon" stroke-width="1" />
<text x="550.500000" y="169.000000" font-size="12" fill="lemonchiffon"> H </text>
<rect x="490.000000" y="200.000000" width="10" height="10" fill="red" stroke="lemonchiffon" stroke-width="1" />
<text x="490.500000" y="209.000000" font-size="12" fill="lemonchiffon"> H </text>
<rect x="430.000000" y="160.000000" width="10" height="10" fill="red" stroke="lemonchiffon" stroke-width="1" />
<text x="430.500000" y="169.000000" font-size="12" fill="lemonchiffon"> H </text>
<rect x="625.000000" y="120.000000" width="10" height="10" fill="red" stroke="lemonchiffon" stroke-width="1" />
<text x="625.500000" y="129.000000" font-size="12" fill="lemonchiffon"> H </text>
<rect x="625.000000" y="200.000000" width="10" height="10" fill="red" stroke="lemonchiffon" stroke-width="1" />
<text x="625.500000" y="209.000000" font-size="12" fill="lemonchiffon"> H </text>
<rect x="565.000000" y="160.000000" width="10" height="10" fill="red" stroke="lemonchiffon" stroke-width="1" />
<text x="565.500000" y="169.000000" font-size="12" fill="lemonchiffon"> H </text>
<rect x="85.000000" y="215.000000" width="10" height="10" fill="red" stroke="lemonchiffon" stroke-width="1" />
<text x="85.500000" y="224.000000" font-size="12" fill="lemonchiffon"> H </text>
<rect x="145.000000" y="255.000000" width="10" height="10" fill="red" stroke="lemonchiffon" stroke-width="1" />
<text x="145.500000" y="264.000000" font-size="12" fill="lemonchiffon"> H </text>
<rect x="85.000000" y="295.000000" width="10" height="10" fill="red" stroke="lemonchiffon" stroke-width="1" />
<text x="85.500000" y="304.000000" font-size="12" fill="lemonchiffon"> H </text>
<rect x="220.000000" y="295.000000" width="10" height="10" fill="red" stroke="lemonchiffon" stroke-width="1" />
<text x="220.500000" y="304.000000" font-size="12" fill="lemonchiffon"> H </text>
<rect x="415.000000" y="255.000000" width="10" height="10" fill="red" stroke="lemonchiffon" stroke-width="1" />
<text x="415.500000" y="264.000000" font-size="12" fill="lemonchiffon"> H </text>
<rect x="355.000000" y="295.000000" width="10" height="10" fill="red" stroke="lemonchiffon" stroke-width="1" />
<text x="355.500000" y="304.000000" font-size="12" fill="lemonchiffon"> H </text>
<rect x="295.000000" y="255.000000" width="10" height="10" fill="red" stroke="lemonchiffon" stroke-width="1" />
<text x="295.500000" y="264.000000" font-size="12" fill="lemonchiffon"> H </text>
<rect x="490.000000" y="215.000000" width="10" height="10" fill="red" stroke="lemonchiffon" stroke-width="1" />
<text x="490.500000" y="224.000000" font-size="12" fill="lemonchiffon"> H </text>
<rect x="430.000000" y="255.000000" width="10" height="10" fill="red" stroke="lemonchiffon" stroke-width="1" />
<text x="430.500000" y="264.000000" font-size="12" fill="lemonchiffon"> H </text>
<rect x="565.000000" y="255.000000" width="10" height="10" fill="red" stroke="lemonchiffon" stroke-width="1" />
<text x="565.500000" y="264.000000" font-size="12" fill="lemonchiffon"> H </text>
<rect x="85.000000" y="310.000000" width="10" height="10" fill="red" stroke="lemonchiffon" stroke-width="1" />
<text x="85.500000" y="319.000000" font-size="12" fill="lemonchiffon"> H </text>
<rect x="145.000000" y="350.000000" width="10" height="10" fill="red" stroke="lemonchiffon" stroke-width="1" />
<text x="145.500000" y="359.000000" font-size="12" fill="lemonchiffon"> H </text>
<rect x="25.000000" y="350.000000" width="10" height="10" fill="red" stroke="lemonchiffon" stroke-width="1" />
<text x="25.500000" y="359.000000" font-size="12" fill="lemonchiffon"> H </text>
<rect x="220.000000" y="310.000000" width="10" height="10" fill="red" stroke="lemonchiffon" stroke-width="1" />
<text x="220.500000" y="319.000000" font-size="12" fill="lemonchiffon"> H </text>
<rect x="280.000000" y="350.000000" width="10" height="10" fill="red" stroke="lemonchiffon" stroke-width="1" />
<text x="280.500000" y="359.000000" font-size="12" fill="lemonchiffon"> H </text>
<rect x="355.000000" y="310.000000" width="10" height="10" fill="red" stroke="lemonchiffon" stroke-width="1" />
<text x="355.500000" y="319.000000" font-size="12" fill="lemonchiffon"> H </text>
<rect x="415.000000" y="350.000000" width="10" height="10" fill="red" stroke="lemonchiffon" stroke-width="1" />
<text x="415.500000" y="359.000000" font-size="12" fill="lemonchiffon"> H </text>
<rect x="295.000000" y="350.000000" width="10" height="10" fill="red" stroke="lemonchiffon" stroke-width="1" />
<text x="295.500000" y="359.000000" font-size="12" fill="lemonchiffon"> H </text>
<rect x="430.000000" y="350.000000" width="10" height="10" fill="red" stroke="lemonchiffon" stroke-width="1" />
<text x="430.500000" y="359.000000" font-size="12" fill="lemonchiffon"> H </text>
<rect x="625.000000" y="310.000000" width="10" height="10" fill="red" stroke="lemonchiffon" stroke-width="1" />
<text x="625.500000" y="319.000000" font-size="12" fill="lemonchiffon"> H </text>
<rect x="565.000000" y="350.000000" width="10" height="10" fill="red" stroke="lemonchiffon" stroke-width="1" />
<text x="565.500000" y="359.000000" font-size="12" fill="lemonchiffon"> H </text>
<rect x="145.000000" y="445.000000" width="10" height="10" fill="red" stroke="lemonchiffon" stroke-width="1" />
<text x="145.500000" y="454.000000" font-size="12" fill="lemonchiffon"> H </text>
<rect x="25.000000" y="445.000000" width="10" height="10" fill="red" stroke="lemonchiffon" stroke-width="1" />
<text x="25.500000" y="454.000000" font-size="12" fill="lemonchiffon"> H </text>
<rect x="280.000000" y="445.000000" width="10" height="10" fill="red" stroke="lemonchiffon" stroke-width="1" />
<text x="280.500000" y="454.000000" font-size="12" fill="lemonchiffon"> H </text>
<rect x="415.000000" y="445.000000" width="10" height="10" fill="red" stroke="lemonchiffon" stroke-width="1" />
<text x="415.500000" y="454.000000" font-size="12" fill="lemonchiffon"> H </text>
<rect x="355.000000" y="485.000000" width="10" height="10" fill="red" stroke="lemonchiffon" stroke-width="1" />
<text x="355.500000" y="494.000000" font-size="12" fill="lemonchiffon"> H </text>
<rect x="550.000000" y="445.000000" width="10" height="10" fill="red" stroke="lemonchiffon" stroke-width="1" />
<text x="550.500000" y="454.000000" font-size="12" fill="lemonchiffon"> H </text>
<rect x="490.000000" y="485.000000" width="10" height="10" fill="red" stroke="lemonchiffon" stroke-width="1" />
<text x="490.500000" y="494.000000" font-size="12" fill="lemonchiffon"> H </text>
<rect x="430.000000" y="445.000000" width="10" height="10" fill="red" stroke="lemonchiffon" stroke-width="1" />
<text x="430.500000" y="454.000000" font-size="12" fill="lemonchiffon"> H </text>
<rect x="625.000000" y="405.000000" width="10" height="10" fill="red" stroke="lemonchiffon" stroke-width="1" />
<text x="625.500000" y="414.000000" font-size="12" fill="lemonchiffon"> H </text>
<rect x="625.000000" y="485.000000" width="10" height="10" fill="red" stroke="lemonchiffon" stroke-width="1" />
<text x="625.500000" y="494.000000" font-size="12" fill="lemonchiffon"> H </text>
<rect x="565.000000" y="445.000000" width="10" height="10" fill="red" stroke="lemonchiffon" stroke-width="1" />
<text x="565.500000" y="454.000000" font-size="12" fill="lemonchiffon"> H </text>
<circle cx="152.500000" cy="207.500000" r="6" fill="lemonchiffon" stroke="purple" stroke-width="1" /> 
<text x="148.500000" y="211.500000" font-size="13" fill="purple"> S </text>
<circle cx="152.500000" cy="302.500000" r="6" fill="lemonchiffon" stroke="purple" stroke-width="1" /> 
<text x="148.500000" y="306.500000" font-size="13" fill="purple"> S </text>
<circle cx="287.500000" cy="397.500000" r="6" fill="lemonchiffon" stroke="purple" stroke-width="1" /> 
<text x="283.500000" y="401.500000" font-size="13" fill="purple"> S </text>
<circle cx="422.500000" cy="397.500000" r="6" fill="lemonchiffon" stroke="purple" stroke-width="1" /> 
<text x="418.500000" y="401.500000" font-size="13" fill="purple"> S </text>
<circle cx="152.500000" cy="492.500000" r="6" fill="lemonchiffon" stroke="purple" stroke-width="1" /> 
<text x="148.500000" y="496.500000" font-size="13" fill="purple"> S </text>
<rect x="355.000000" y="65.000000" width="5" height="13" fill="midnightblue" stroke="green" stroke-width="1" />
<text x="358.000000" y="69.000000" font-size="5" fill="green"> RB </text>
<rect x="490.000000" y="160.000000" width="5" height="13" fill="midnightblue" stroke="green" stroke-width="1" />
<text x="493.000000" y="164.000000" font-size="5" fill="green"> RB </text>
<rect x="355.000000" y="255.000000" width="5" height="13" fill="midnightblue" stroke="green" stroke-width="1" />
<text x="358.000000" y="259.000000" font-size="5" fill="green"> RB </text>
<rect x="625.000000" y="445.000000" width="5" height="13" fill="midnightblue" stroke="green" stroke-width="1" />
<text x="628.000000" y="449.000000" font-size="5" fill="green"> RB </text>
</svg>
