<svg>
<circle cx="367.000000" cy="102.000000" r="15.000000" fill="black" stroke="midnightblue" stroke-width="1" />
<rect x="507.000000" y="256.000000" width="30.000000" height="30.000000" fill="black" stroke="midnightblue" stroke-width="1" />
<circle cx="367.000000" cy="102.000000" r="15.000000" fill="black" stroke="midnightblue" stroke-width="1" />
<rect x="507.000000" y="256.000000" width="30.000000" height="30.000000" fill="black" stroke="midnightblue" stroke-width="1" />
<rect x="25.000000" y="25.000000" width="120.000000" height="80.000000" fill="peru" stroke="midnightblue" stroke-width="1" />
<text x="28.000000" y="37.000000" font-size="12" fill="midnightblue"> quadra0 </text>
<rect x="160.000000" y="25.000000" width="120.000000" height="80.000000" fill="peru" stroke="midnightblue" stroke-width="1" />
<text x="163.000000" y="37.000000" font-size="12" fill="midnightblue"> quadra1 </text>
<rect x="295.000000" y="25.000000" width="120.000000" height="80.000000" fill="peru" stroke="midnightblue" stroke-width="1" />
<text x="298.000000" y="37.000000" font-size="12" fill="midnightblue"> quadra2 </text>
<rect x="430.000000" y="25.000000" width="120.000000" height="80.000000" fill="peru" stroke="midnightblue" stroke-width="1" />
<text x="433.000000" y="37.000000" font-size="12" fill="midnightblue"> quadra3 </text>
<rect x="565.000000" y="25.000000" width="120.000000" height="80.000000" fill="peru" stroke="midnightblue" stroke-width="1" />
<text x="568.000000" y="37.000000" font-size="12" fill="midnightblue"> quadra4 </text>
<rect x="25.000000" y="120.000000" width="120.000000" height="80.000000" fill="peru" stroke="midnightblue" stroke-width="1" />
<text x="28.000000" y="132.000000" font-size="12" fill="midnightblue"> quadra5 </text>
<rect x="160.000000" y="120.000000" width="120.000000" height="80.000000" fill="peru" stroke="midnightblue" stroke-width="1" />
<text x="163.000000" y="132.000000" font-size="12" fill="midnightblue"> quadra6 </text>
<rect x="295.000000" y="120.000000" width="120.000000" height="80.000000" fill="peru" stroke="midnightblue" stroke-width="1" />
<text x="298.000000" y="132.000000" font-size="12" fill="midnightblue"> quadra7 </text>
<rect x="430.000000" y="108.000000" width="120.000000" height="80.000000" fill="peru" stroke="midnightblue" stroke-width="1" />
<text x="433.000000" y="120.000000" font-size="12" fill="midnightblue"> quadra8 </text>
<rect x="565.000000" y="108.000000" width="120.000000" height="80.000000" fill="peru" stroke="midnightblue" stroke-width="1" />
<text x="568.000000" y="120.000000" font-size="12" fill="midnightblue"> quadra9 </text>
<rect x="25.000000" y="215.000000" width="120.000000" height="80.000000" fill="peru" stroke="midnightblue" stroke-width="1" />
<text x="28.000000" y="227.000000" font-size="12" fill="midnightblue"> quadra10 </text>
<rect x="160.000000" y="215.000000" width="120.000000" height="80.000000" fill="peru" stroke="midnightblue" stroke-width="1" />
<text x="163.000000" y="227.000000" font-size="12" fill="midnightblue"> quadra11 </text>
<rect x="295.000000" y="215.000000" width="120.000000" height="80.000000" fill="peru" stroke="midnightblue" stroke-width="1" />
<text x="298.000000" y="227.000000" font-size="12" fill="midnightblue"> quadra12 </text>
<rect x="430.000000" y="215.000000" width="120.000000" height="80.000000" fill="peru" stroke="midnightblue" stroke-width="1" />
<text x="433.000000" y="227.000000" font-size="12" fill="midnightblue"> quadra13 </text>
<rect x="565.000000" y="215.000000" width="120.000000" height="80.000000" fill="peru" stroke="midnightblue" stroke-width="1" />
<text x="568.000000" y="227.000000" font-size="12" fill="midnightblue"> quadra14 </text>
<rect x="25.000000" y="310.000000" width="120.000000" height="80.000000" fill="peru" stroke="midnightblue" stroke-width="1" />
<text x="28.000000" y="322.000000" font-size="12" fill="midnightblue"> quadra15 </text>
<rect x="160.000000" y="310.000000" width="120.000000" height="80.000000" fill="peru" stroke="midnightblue" stroke-width="1" />
<text x="163.000000" y="322.000000" font-size="12" fill="midnightblue"> quadra16 </text>
<rect x="295.000000" y="310.000000" width="120.000000" height="80.000000" fill="peru" stroke="midnightblue" stroke-width="1" />
<text x="298.000000" y="322.000000" font-size="12" fill="midnightblue"> quadra17 </text>
<rect x="430.000000" y="310.000000" width="120.000000" height="80.000000" fill="peru" stroke="midnightblue" stroke-width="1" />
<text x="433.000000" y="322.000000" font-size="12" fill="midnightblue"> quadra18 </text>
<rect x="565.000000" y="310.000000" width="120.000000" height="80.000000" fill="peru" stroke="midnightblue" stroke-width="1" />
<text x="568.000000" y="322.000000" font-size="12" fill="midnightblue"> quadra19 </text>
<rect x="25.000000" y="405.000000" width="120.000000" height="80.000000" fill="peru" stroke="midnightblue" stroke-width="1" />
<text x="28.000000" y="417.000000" font-size="12" fill="midnightblue"> quadra20 </text>
<rect x="160.000000" y="405.000000" width="120.000000" height="80.000000" fill="peru" stroke="midnightblue" stroke-width="1" />
<text x="163.000000" y="417.000000" font-size="12" fill="midnightblue"> quadra21 </text>
<rect x="295.000000" y="405.000000" width="120.000000" height="80.000000" fill="peru" stroke="midnightblue" stroke-width="1" />
<text x="298.000000" y="417.000000" font-size="12" fill="midnightblue"> quadra22 </text>
<rect x="430.000000" y="405.000000" width="120.000000" height="80.000000" fill="peru" stroke="midnightblue" stroke-width="1" />
<text x="433.000000" y="417.000000" font-size="12" fill="midnightblue"> quadra23 </text>
<rect x="565.000000" y="405.000000" width="120.000000" height="80.000000" fill="peru" stroke="midnightblue" stroke-width="1" />
<text x="568.000000" y="417.000000" font-size="12" fill="midnightblue"> quadra24 </text>
<rect x="85.000000" y="25.000000" width="10" height="10" fill="black" stroke="black" stroke-width="1" />
<text x="85.500000" y="34.000000" font-size="12" fill="black"> H </text>
<rect x="145.000000" y="65.000000" width="10" height="10" fill="black" stroke="black" stroke-width="1" />
<text x="145.500000" y="74.000000" font-size="12" fill="black"> H </text>
<rect x="85.000000" y="105.000000" width="10" height="10" fill="black" stroke="black" stroke-width="1" />
<text x="85.500000" y="114.000000" font-size="12" fill="black"> H </text>
<rect x="280.000000" y="65.000000" width="10" height="10" fill="black" stroke="black" stroke-width="1" />
<text x="280.500000" y="74.000000" font-size="12" fill="black"> H </text>
<rect x="415.000000" y="53.000000" width="10" height="10" fill="black" stroke="black" stroke-width="1" />
<text x="415.500000" y="62.000000" font-size="12" fill="black"> H </text>
<rect x="355.000000" y="93.000000" width="10" height="10" fill="black" stroke="black" stroke-width="1" />
<text x="355.500000" y="102.000000" font-size="12" fill="black"> H </text>
<rect x="295.000000" y="65.000000" width="10" height="10" fill="black" stroke="black" stroke-width="1" />
<text x="295.500000" y="74.000000" font-size="12" fill="black"> H </text>
<rect x="685.000000" y="53.000000" width="10" height="10" fill="black" stroke="black" stroke-width="1" />
<text x="685.500000" y="62.000000" font-size="12" fill="black"> H </text>
<rect x="565.000000" y="53.000000" width="10" height="10" fill="black" stroke="black" stroke-width="1" />
<text x="565.500000" y="62.000000" font-size="12" fill="black"> H </text>
<rect x="145.000000" y="160.000000" width="10" height="10" fill="black" stroke="black" stroke-width="1" />
<text x="145.500000" y="169.000000" font-size="12" fill="black"> H </text>
<rect x="25.000000" y="160.000000" width="10" height="10" fill="black" stroke="black" stroke-width="1" />
<text x="25.500000" y="169.000000" font-size="12" fill="black"> H </text>
<rect x="160.000000" y="160.000000" width="10" height="10" fill="black" stroke="black" stroke-width="1" />
<text x="160.500000" y="169.000000" font-size="12" fill="black"> H </text>
<rect x="355.000000" y="108.000000" width="10" height="10" fill="black" stroke="black" stroke-width="1" />
<text x="355.500000" y="117.000000" font-size="12" fill="black"> H </text>
<rect x="415.000000" y="148.000000" width="10" height="10" fill="black" stroke="black" stroke-width="1" />
<text x="415.500000" y="157.000000" font-size="12" fill="black"> H </text>
<rect x="355.000000" y="188.000000" width="10" height="10" fill="black" stroke="black" stroke-width="1" />
<text x="355.500000" y="197.000000" font-size="12" fill="black"> H </text>
<rect x="295.000000" y="160.000000" width="10" height="10" fill="black" stroke="black" stroke-width="1" />
<text x="295.500000" y="169.000000" font-size="12" fill="black"> H </text>
<rect x="550.000000" y="148.000000" width="10" height="10" fill="black" stroke="black" stroke-width="1" />
<text x="550.500000" y="157.000000" font-size="12" fill="black"> H </text>
<rect x="625.000000" y="108.000000" width="10" height="10" fill="black" stroke="black" stroke-width="1" />
<text x="625.500000" y="117.000000" font-size="12" fill="black"> H </text>
<rect x="625.000000" y="188.000000" width="10" height="10" fill="black" stroke="black" stroke-width="1" />
<text x="625.500000" y="197.000000" font-size="12" fill="black"> H </text>
<rect x="565.000000" y="148.000000" width="10" height="10" fill="black" stroke="black" stroke-width="1" />
<text x="565.500000" y="157.000000" font-size="12" fill="black"> H </text>
<rect x="85.000000" y="215.000000" width="10" height="10" fill="black" stroke="black" stroke-width="1" />
<text x="85.500000" y="224.000000" font-size="12" fill="black"> H </text>
<rect x="85.000000" y="295.000000" width="10" height="10" fill="black" stroke="black" stroke-width="1" />
<text x="85.500000" y="304.000000" font-size="12" fill="black"> H </text>
<rect x="25.000000" y="255.000000" width="10" height="10" fill="black" stroke="black" stroke-width="1" />
<text x="25.500000" y="264.000000" font-size="12" fill="black"> H </text>
<rect x="280.000000" y="255.000000" width="10" height="10" fill="black" stroke="black" stroke-width="1" />
<text x="280.500000" y="264.000000" font-size="12" fill="black"> H </text>
<rect x="220.000000" y="295.000000" width="10" height="10" fill="black" stroke="black" stroke-width="1" />
<text x="220.500000" y="304.000000" font-size="12" fill="black"> H </text>
<rect x="355.000000" y="203.000000" width="10" height="10" fill="black" stroke="black" stroke-width="1" />
<text x="355.500000" y="212.000000" font-size="12" fill="black"> H </text>
<rect x="430.000000" y="255.000000" width="10" height="10" fill="black" stroke="black" stroke-width="1" />
<text x="430.500000" y="264.000000" font-size="12" fill="black"> H </text>
<rect x="625.000000" y="203.000000" width="10" height="10" fill="black" stroke="black" stroke-width="1" />
<text x="625.500000" y="212.000000" font-size="12" fill="black"> H </text>
<rect x="685.000000" y="255.000000" width="10" height="10" fill="black" stroke="black" stroke-width="1" />
<text x="685.500000" y="264.000000" font-size="12" fill="black"> H </text>
<rect x="565.000000" y="255.000000" width="10" height="10" fill="black" stroke="black" stroke-width="1" />
<text x="565.500000" y="264.000000" font-size="12" fill="black"> H </text>
<rect x="85.000000" y="390.000000" width="10" height="10" fill="black" stroke="black" stroke-width="1" />
<text x="85.500000" y="399.000000" font-size="12" fill="black"> H </text>
<rect x="25.000000" y="350.000000" width="10" height="10" fill="black" stroke="black" stroke-width="1" />
<text x="25.500000" y="359.000000" font-size="12" fill="black"> H </text>
<rect x="280.000000" y="350.000000" width="10" height="10" fill="black" stroke="black" stroke-width="1" />
<text x="280.500000" y="359.000000" font-size="12" fill="black"> H </text>
<rect x="220.000000" y="390.000000" width="10" height="10" fill="black" stroke="black" stroke-width="1" />
<text x="220.500000" y="399.000000" font-size="12" fill="black"> H </text>
<rect x="415.000000" y="350.000000" width="10" height="10" fill="black" stroke="black" stroke-width="1" />
<text x="415.500000" y="359.000000" font-size="12" fill="black"> H </text>
<rect x="295.000000" y="350.000000" width="10" height="10" fill="black" stroke="black" stroke-width="1" />
<text x="295.500000" y="359.000000" font-size="12" fill="black"> H </text>
<rect x="550.000000" y="350.000000" width="10" height="10" fill="black" stroke="black" stroke-width="1" />
<text x="550.500000" y="359.000000" font-size="12" fill="black"> H </text>
<rect x="430.000000" y="350.000000" width="10" height="10" fill="black" stroke="black" stroke-width="1" />
<text x="430.500000" y="359.000000" font-size="12" fill="black"> H </text>
<rect x="625.000000" y="310.000000" width="10" height="10" fill="black" stroke="black" stroke-width="1" />
<text x="625.500000" y="319.000000" font-size="12" fill="black"> H </text>
<rect x="625.000000" y="390.000000" width="10" height="10" fill="black" stroke="black" stroke-width="1" />
<text x="625.500000" y="399.000000" font-size="12" fill="black"> H </text>
<rect x="565.000000" y="350.000000" width="10" height="10" fill="black" stroke="black" stroke-width="1" />
<text x="565.500000" y="359.000000" font-size="12" fill="black"> H </text>
<rect x="145.000000" y="445.000000" width="10" height="10" fill="black" stroke="black" stroke-width="1" />
<text x="145.500000" y="454.000000" font-size="12" fill="black"> H </text>
<rect x="85.000000" y="485.000000" width="10" height="10" fill="black" stroke="black" stroke-width="1" />
<text x="85.500000" y="494.000000" font-size="12" fill="black"> H </text>
<rect x="25.000000" y="445.000000" width="10" height="10" fill="black" stroke="black" stroke-width="1" />
<text x="25.500000" y="454.000000" font-size="12" fill="black"> H </text>
<rect x="220.000000" y="485.000000" width="10" height="10" fill="black" stroke="black" stroke-width="1" />
<text x="220.500000" y="494.000000" font-size="12" fill="black"> H </text>
<rect x="160.000000" y="445.000000" width="10" height="10" fill="black" stroke="black" stroke-width="1" />
<text x="160.500000" y="454.000000" font-size="12" fill="black"> H </text>
<rect x="415.000000" y="445.000000" width="10" height="10" fill="black" stroke="black" stroke-width="1" />
<text x="415.500000" y="454.000000" font-size="12" fill="black"> H </text>
<rect x="490.000000" y="405.000000" width="10" height="10" fill="black" stroke="black" stroke-width="1" />
<text x="490.500000" y="414.000000" font-size="12" fill="black"> H </text>
<rect x="550.000000" y="445.000000" width="10" height="10" fill="black" stroke="black" stroke-width="1" />
<text x="550.500000" y="454.000000" font-size="12" fill="black"> H </text>
<rect x="490.000000" y="485.000000" width="10" height="10" fill="black" stroke="black" stroke-width="1" />
<text x="490.500000" y="494.000000" font-size="12" fill="black"> H </text>
<rect x="430.000000" y="445.000000" width="10" height="10" fill="black" stroke="black" stroke-width="1" />
<text x="430.500000" y="454.000000" font-size="12" fill="black"> H </text>
<rect x="625.000000" y="405.000000" width="10" height="10" fill="black" stroke="black" stroke-width="1" />
<text x="625.500000" y="414.000000" font-size="12" fill="black"> H </text>
<rect x="625.000000" y="485.000000" width="10" height="10" fill="black" stroke="black" stroke-width="1" />
<text x="625.500000" y="494.000000" font-size="12" fill="black"> H </text>
<rect x="565.000000" y="445.000000" width="10" height="10" fill="black" stroke="black" stroke-width="1" />
<text x="565.500000" y="454.000000" font-size="12" fill="black"> H </text>
<circle cx="422.500000" cy="100.500000" r="6" fill="lemonchiffon" stroke="yellow" stroke-width="1" /> 
<text x="418.500000" y="104.500000" font-size="13" fill="yellow"> S </text>
<circle cx="152.500000" cy="302.500000" r="6" fill="lemonchiffon" stroke="yellow" stroke-width="1" /> 
<text x="148.500000" y="306.500000" font-size="13" fill="yellow"> S </text>
<circle cx="422.500000" cy="302.500000" r="6" fill="lemonchiffon" stroke="yellow" stroke-width="1" /> 
<text x="418.500000" y="306.500000" font-size="13" fill="yellow"> S </text>
<circle cx="557.500000" cy="302.500000" r="6" fill="lemonchiffon" stroke="yellow" stroke-width="1" /> 
<text x="553.500000" y="306.500000" font-size="13" fill="yellow"> S </text>
<circle cx="422.500000" cy="397.500000" r="6" fill="lemonchiffon" stroke="yellow" stroke-width="1" /> 
<text x="418.500000" y="401.500000" font-size="13" fill="yellow"> S </text>
<circle cx="557.500000" cy="397.500000" r="6" fill="lemonchiffon" stroke="yellow" stroke-width="1" /> 
<text x="553.500000" y="401.500000" font-size="13" fill="yellow"> S </text>
<circle cx="152.500000" cy="492.500000" r="6" fill="lemonchiffon" stroke="yellow" stroke-width="1" /> 
<text x="148.500000" y="496.500000" font-size="13" fill="yellow"> S </text>
<rect x="490.000000" y="148.000000" width="5" height="13" fill="midnightblue" stroke="pink" stroke-width="1" />
<text x="493.000000" y="152.000000" font-size="5" fill="pink"> RB </text>
<rect x="85.000000" y="255.000000" width="5" height="13" fill="midnightblue" stroke="pink" stroke-width="1" />
<text x="88.000000" y="259.000000" font-size="5" fill="pink"> RB </text>
<rect x="220.000000" y="350.000000" width="5" height="13" fill="midnightblue" stroke="pink" stroke-width="1" />
<text x="223.000000" y="354.000000" font-size="5" fill="pink"> RB </text>
<rect x="85.000000" y="445.000000" width="5" height="13" fill="midnightblue" stroke="pink" stroke-width="1" />
<text x="88.000000" y="449.000000" font-size="5" fill="pink"> RB </text>
<rect x="355.000000" y="445.000000" width="5" height="13" fill="midnightblue" stroke="pink" stroke-width="1" />
<text x="358.000000" y="449.000000" font-size="5" fill="pink"> RB </text>
<rect x="625.000000" y="445.000000" width="5" height="13" fill="midnightblue" stroke="pink" stroke-width="1" />
<text x="628.000000" y="449.000000" font-size="5" fill="pink"> RB </text>
</svg>
